Coordinates
version=1
nRows=29
nColumns=24
inDegrees=yes

Units are S.I. units (second, meters, Newtons, ...)
Angles are in degrees.

endheader
time	pelvis_tilt	pelvis_list	pelvis_rotation	pelvis_tx	pelvis_ty	pelvis_tz	hip_flexion_r	hip_adduction_r	hip_rotation_r	knee_angle_r	ankle_angle_r	subtalar_angle_r	mtp_angle_r	hip_flexion_l	hip_adduction_l	hip_rotation_l	knee_angle_l	ankle_angle_l	subtalar_angle_l	mtp_angle_l	lumbar_extension	lumbar_bending	lumbar_rotation
      5.87000000	     -4.47729175	      1.90986666	      2.85307652	     -0.07240221	      0.70404686	      0.23644082	     26.90400222	      0.30179863	     -4.36025878	    -59.53067231	     12.13081104	     -8.49594994	      0.00000000	      0.18853202	      7.20016483	     29.59953386	     -1.03745284	     -0.89369644	    -32.28432429	      0.00000000	    -13.93468531	     -5.46861070	     -0.89589472
      5.88000000	     -4.71735939	      1.56947757	      3.51614321	     -0.05948016	      0.70433176	      0.23606985	     28.37651256	      0.44135324	     -5.05873985	    -56.99709957	     12.28265543	     -9.84736482	      0.00000000	     -1.22351768	      6.57127286	     29.69376991	      0.04723643	     -0.86493497	    -32.20221510	      0.00000000	    -13.70474889	     -5.05143319	     -1.39740477
      5.89000000	     -4.68125300	      1.38057433	      4.32610272	     -0.04669344	      0.70465254	      0.23558340	     29.35714092	      0.38194495	     -5.76451715	    -54.07856617	     12.35014328	    -11.10051754	      0.00000000	     -2.87082137	      6.07503446	     29.96004988	      1.02487795	     -1.00611243	    -32.20080137	      0.00000000	    -13.94909507	     -4.78074790	     -2.17170780
      5.90000000	     -4.75172229	      1.27591907	      5.06568267	     -0.03385929	      0.70449660	      0.23516870	     30.28533506	      0.27052100	     -6.29295523	    -50.81288874	     12.43123248	    -12.08255853	      0.00000000	     -4.34658816	      5.68077646	     30.07878011	      1.87682161	     -0.97294675	    -32.02557515	      0.00000000	    -14.06543327	     -4.63117033	     -2.76188245
      5.91000000	     -4.83194893	      1.25482810	      5.80128060	     -0.02096811	      0.70401312	      0.23475524	     31.01967292	      0.08480892	     -6.72723771	    -47.16201091	     12.54258251	    -12.85203325	      0.00000000	     -5.74431997	      5.38014841	     30.22281016	      2.56212723	     -0.78837027	    -31.78283877	      0.00000000	    -14.18067140	     -4.59647101	     -3.33658672
      5.92000000	     -4.68308944	      1.34026810	      6.51738088	     -0.00814781	      0.70358713	      0.23444130	     31.28252901	     -0.12540032	     -6.96433296	    -43.09062637	     12.63992203	    -13.43096431	      0.00000000	     -7.32744068	      5.14248650	     30.40993347	      3.11055960	     -0.58417606	    -31.39653896	      0.00000000	    -14.70904075	     -4.66148823	     -3.99075962
      5.93000000	     -4.65243276	      1.46634475	      7.18945074	      0.00482638	      0.70272803	      0.23412799	     31.44362336	     -0.34948150	     -7.07610940	    -38.62873879	     12.74367193	    -13.82253640	      0.00000000	     -8.73223209	      4.95506703	     30.65073085	      3.51131182	     -0.27727980	    -31.00774374	      0.00000000	    -15.07250359	     -4.78311419	     -4.55083040
      5.94000000	     -4.77384517	      1.61721960	      7.83804968	      0.01801706	      0.70140192	      0.23382011	     31.53436758	     -0.58659991	     -7.08170154	    -33.80611068	     12.81028358	    -14.03870596	      0.00000000	     -9.94316962	      4.78106662	     31.05997079	      3.80067288	      0.08263254	    -30.62249050	      0.00000000	    -15.20592527	     -4.95057157	     -5.05229219
      5.95000000	     -4.53472498	      1.85468739	      8.40553968	      0.03134907	      0.70029247	      0.23361141	     30.97464596	     -0.77476998	     -6.76475508	    -28.61352648	     12.71112598	    -14.21534618	      0.00000000	    -11.52743485	      4.62967829	     31.40175188	      4.00621021	      0.43190291	    -30.09735938	      0.00000000	    -15.86556802	     -5.14837672	     -5.59316418
      5.96000000	     -4.56932928	      2.21437689	      9.03844974	      0.04491552	      0.69851437	      0.23328590	     30.52448054	     -1.15318018	     -6.31308731	    -23.28289156	     12.51863107	    -14.42289059	      0.00000000	    -12.78454436	      4.60456902	     32.10900365	      4.05235702	      0.85369674	    -29.63234495	      0.00000000	    -16.13291919	     -5.51948613	     -6.16213590
      5.97000000	     -4.23103974	      2.56135599	      9.50285596	      0.05897769	      0.69686472	      0.23304320	     29.44328653	     -1.38190081	     -5.40475437	    -17.77013745	     12.00167036	    -14.83670012	      0.00000000	    -14.49578768	      4.49707719	     32.60681186	      4.11587957	      1.30152535	    -29.06854238	      0.00000000	    -16.79259415	     -5.76988768	     -6.59044458
      5.98000000	     -4.07082826	      3.09910632	     10.06943212	      0.07325314	      0.69475399	      0.23253371	     28.46034065	     -1.94936945	     -4.42497364	    -12.47763263	     11.31279330	    -15.32614174	      0.00000000	    -15.99115967	      4.59081517	     33.35832546	      4.01176875	      1.70523768	    -28.43049004	      0.00000000	    -17.22857667	     -6.21437601	     -7.20837098
      5.99000000	     -3.89184795	      3.76808587	     10.57682769	      0.08782363	      0.69240587	      0.23192198	     27.44364926	     -2.70162324	     -3.43112816	     -7.61765245	     10.59436003	    -15.73419501	      0.00000000	    -17.50817078	      4.82682931	     34.10175780	      3.78793563	      2.09781683	    -27.67817577	      0.00000000	    -17.66194369	     -6.76987131	     -7.80978116
      6.00000000	     -3.78917486	      4.49894797	     10.99923246	      0.10266914	      0.68979913	      0.23125256	     26.63146147	     -3.55812616	     -2.70848442	     -3.48926237	     10.10025087	    -15.71492422	      0.00000000	    -18.93030061	      5.16128635	     34.79572760	      3.45007118	      2.45940588	    -26.80654892	      0.00000000	    -17.96988007	     -7.38434120	     -8.35117944
      6.01000000	     -3.81289350	      5.24220319	     11.31664272	      0.11770491	      0.68701754	      0.23066742	     26.18278776	     -4.40911536	     -2.33832222	     -0.29943267	      9.94179413	    -15.20822218	      0.00000000	    -20.16115995	      5.56869131	     35.45904565	      2.96321879	      2.62113107	    -25.97459958	      0.00000000	    -18.09728538	     -8.05552848	     -8.79533354
      6.02000000	     -3.76306715	      5.80419950	     11.55938306	      0.13295468	      0.68439703	      0.23012519	     25.83003195	     -5.04006151	     -1.95104129	      1.98123257	      9.85398479	    -14.66351050	      0.00000000	    -21.38535323	      5.77993159	     36.08806877	      2.37905864	      2.82715633	    -24.91764930	      0.00000000	    -18.28164208	     -8.45819221	     -9.12499520
      6.03000000	     -3.42872942	      6.04400456	     11.66889814	      0.14876972	      0.68221420	      0.22983229	     25.30588546	     -5.19550421	     -1.64995257	      3.43862263	      9.72294538	    -14.59766203	      0.00000000	    -22.79020423	      5.67209330	     35.94836639	      1.64181952	      3.52049373	    -22.81395755	      0.00000000	    -18.61616860	     -8.47299173	     -9.24468096
      6.04000000	     -3.27993797	      6.19141036	     11.57314478	      0.16455300	      0.68001810	      0.22970967	     25.27748327	     -5.20425651	     -0.90609051	      3.79777315	      9.47079700	    -14.96738264	      0.00000000	    -23.78457390	      5.68965558	     35.52998384	      0.55992262	      4.00533294	    -20.64876486	      0.00000000	    -18.72435558	     -8.45041641	     -9.05549025
      6.05000000	     -3.06885156	      6.09909336	     11.21469183	      0.18052138	      0.67810858	      0.22986053	     25.45791096	     -4.82672057	      0.10890525	      3.13660210	      9.03682323	    -15.73305163	      0.00000000	    -24.64852856	      5.63099560	     34.61787672	     -0.76320437	      4.24602535	    -18.33822617	      0.00000000	    -18.82527842	     -8.16846341	     -8.53759305
      6.06000000	     -2.88125655	      5.86616777	     10.96144651	      0.19643055	      0.67666769	      0.22994027	     25.79685691	     -4.32565632	      1.24075466	      1.62866064	      8.20797313	    -17.11503396	      0.00000000	    -25.03902927	      5.60629757	     32.90367963	     -2.82628235	      4.92795876	    -14.69434828	      0.00000000	    -18.95839694	     -7.70614396	     -8.08918386
      6.07000000	     -2.67213508	      5.45330065	     10.45769767	      0.21235442	      0.67552844	      0.23035632	     26.43061298	     -3.45976018	      2.26931384	     -0.86720623	      7.44388012	    -18.10992672	      0.00000000	    -25.03029407	      5.62519776	     30.18101146	     -5.48720320	      5.57447910	    -10.31961309	      0.00000000	    -19.08744814	     -7.08644298	     -7.29777499
      6.08000000	     -2.65475020	      4.88241656	     10.00861830	      0.22816458	      0.67458983	      0.23083963	     27.50476778	     -2.40699389	      2.63453367	     -4.18330606	      6.76691733	    -18.44988480	      0.00000000	    -24.14255291	      5.62331182	     26.12477394	     -9.10802242	      6.28721648	     -4.83378704	      0.00000000	    -19.01387986	     -6.31060411	     -6.61334367
      6.09000000	     -2.72443675	      4.29151577	      9.57283057	      0.24359151	      0.67378986	      0.23154049	     28.89319856	     -1.31729585	      2.35004640	     -8.16279004	      6.36276317	    -17.90819264	      0.00000000	    -22.52653860	      5.53035266	     21.48655576	    -13.53405461	      6.44970074	      0.69293357	      0.00000000	    -18.94955769	     -5.57278128	     -5.94069247
      6.10000000	     -3.04022178	      3.61277479	      9.20287275	      0.25885539	      0.67279466	      0.23216597	     30.58601160	     -0.24632960	      1.63162691	    -12.41060233	      6.08043782	    -16.88981137	      0.00000000	    -20.16209566	      5.21557879	     17.10614310	    -18.50414989	      5.58869745	      5.01371601	      0.00000000	    -18.57202689	     -4.74752622	     -5.33631017
      6.11000000	     -3.53166715	      3.03883032	      8.82963460	      0.27384228	      0.67163601	      0.23272723	     32.34221277	      0.64733092	      1.07561508	    -16.57170069	      5.98255772	    -15.73930694	      0.00000000	    -17.26679570	      4.91567108	     13.49007210	    -23.78940405	      3.48250924	      7.57210432	      0.00000000	    -18.01460782	     -4.07725753	     -4.74652262
      6.12000000	     -3.70141175	      2.23928916	      8.58627226	      0.28882973	      0.67100762	      0.23316649	     33.38551847	      1.71145883	      0.47035316	    -20.11317555	      5.82750748	    -15.03453699	      0.00000000	    -14.41270815	      4.15381860	     10.52462305	    -29.20615485	      0.51419153	      8.83655601	      0.00000000	    -17.77816241	     -3.05561142	     -4.27779320
      6.13000000	     -3.83155218	      1.30008768	      8.43661688	      0.30355862	      0.67055235	      0.23356400	     34.05564688	      2.85638384	     -0.08593940	    -23.04560400	      5.96682609	    -14.43194585	      0.00000000	    -11.26154107	      3.12549297	      8.09742669	    -34.78994734	     -3.06856128	      8.96173855	      0.00000000	    -17.56183423	     -1.86546079	     -3.93936674
      6.14000000	     -4.04124245	      0.25342227	      8.49498385	      0.31781908	      0.67022837	      0.23373509	     34.46222929	      3.96748029	     -0.77533126	    -25.28725764	      6.37400891	    -14.02673563	      0.00000000	     -7.69368728	      1.94763980	      6.35138704	    -40.44852770	     -7.20047232	      7.71894134	      0.00000000	    -17.25520668	     -0.54220310	     -3.77448906
      6.15000000	     -4.08615085	     -1.00582643	      8.60336834	      0.33183737	      0.67027414	      0.23403394	     34.30473657	      5.29564858	     -1.52371108	    -26.72685110	      7.12159144	    -13.74751270	      0.00000000	     -4.08770667	      0.44787676	      4.98200848	    -45.95741560	    -11.43999055	      5.74493430	      0.00000000	    -17.08155223	      0.99149414	     -3.59349219
